# xmcd CD database file
#
# Track frame offsets:
#	150
#	21970
#	53007
#	64547
#	93100
#	110742
#
# Disc length: 1833 seconds
#
# Revision: 0
# Processed by: cddbd v1.5.1PL2 Copyright (c) Steve Scherf et al.
# Submitted via: CDex 1.51
#
DISCID=44072706
DTITLE=TOKU - Winds of Change
DYEAR=2002
DGENRE=Jazz
TTITLE0=Autumn Winds
TTITLE1=Lost Inside Each Other
TTITLE2=Little Girl
TTITLE3=Noriko At The Seashore
TTITLE4=To Be With You(TOKU's birthday ver.)
TTITLE5=Hope U Do
EXTD=YEAR: 2002
EXTT0=
EXTT1=
EXTT2=
EXTT3=
EXTT4=
EXTT5=
PLAYORDER=
